<svg id="Layer_1" data-name="Layer 1" xmlns="http://www.w3.org/2000/svg" viewBox="0 0 156.039 49.266"><title>Hines_Sunrise_E56_Horz</title><path d="M38.872,25.535l-13.99-3.078,13.54-.877L33.946,17.9l5.89.482-9.363-9.96,11.671,6.919L40.526,9.784l4.589,3.722L43.007,0l5.73,12.3,1.8-5.505,1.686,5.663L58.11.12,55.9,13.507l4.593-3.526-1.8,5.626L70.51,8.743l-9.382,9.8,5.783-.318-4.666,3.626,13.634,1.005L61.922,25.8c.533-17.14-23.315-16.956-23.067-.476l0,.028v.025l0,.037v.015l0,.045v.008Z" fill="#63666a"/><path d="M100.882,47.759v-4.51c0-.11-.085-.154-.362-.154s-.321.044-.363.154c-1.109,3.231-1.508,4.076-4,4.076l-3.2-.005c-.752,0-.827-.077-.827-.853V39.156H94.1c1.886,0,1.833,1.056,2.319,2.185.04.1.061.167.324.167s.346-.063.346-.167V36.115c0-.105-.082-.146-.346-.146s-.284.041-.324.146c-.486,1.129-.433,2.144-2.34,2.144H92.13V31.65c0-.775.075-.853.827-.853h1.816c2.509,0,3.468.691,4.428,3.263.042.109.085.154.362.154s.341-.045.341-.154V30.345c0-.309-.064-.418-.362-.418H87.112c-.1,0-.151.094-.151.43s.051.44.151.44h1.255c.752,0,.827-.1.827.675V46.467c0,.776-.075.853-.827.853H87.062c-.1,0-.152.078-.152.413s.051.414.152.414l13.458.028c.3,0,.362-.109.362-.416M76.638,34.512c0-1.379,1.12-2.544,3.465-2.544,1.441,0,2.942.889,4.137,3.617.061.153.122.153.521.153s.46-.062.46-.185V31.417c0-.123-.155-.184-.46-.184-.276,0-.368.031-.43.123-.276.428-.429.582-.613.582a1.469,1.469,0,0,1-.766-.245,7.311,7.311,0,0,0-2.972-.766,4.8,4.8,0,0,0-5.271,4.626c0,2.728,2.3,4.045,5.3,5.088,3.248,1.133,4.2,2.021,4.2,3.891,0,1.594-1.287,2.941-3.524,2.941-2.39,0-3.8-1.011-5.025-4.626-.031-.092-.123-.153-.522-.153s-.49.061-.49.183v5.179c0,.122.092.184.49.184.368,0,.43-.062.491-.153.307-.43.521-.614.858-.614a1.5,1.5,0,0,1,.674.184,7.611,7.611,0,0,0,3.708.858A5,5,0,0,0,86.14,43.46c0-2.7-1.349-4.23-4.689-5.363-3.156-1.073-4.813-1.991-4.813-3.585M70.79,46.156V33.286c0-.919.092-1.011,1.011-1.011h.981c.123,0,.183-.092.183-.49s-.06-.491-.183-.491H65.826c-.123,0-.183.093-.183.491s.06.49.183.49h.981c.919,0,1.01.092,1.01,1.011v12.87c0,.919-.091,1.011-1.01,1.011h-.981c-.123,0-.183.092-.183.49s.06.491.183.491h6.956c.123,0,.183-.092.183-.491s-.06-.49-.183-.49H71.8c-.919,0-1.011-.092-1.011-1.011m-5.438,1.716c.184-.092-.153-.95-.368-.858a3.038,3.038,0,0,1-1.073.245c-.521,0-.8-.276-.8-.95V43.95c0-2.758-1.716-4.076-4.382-4.535v-.184c2.727-.46,3.953-1.869,3.953-3.739,0-2.451-1.838-4.2-5.607-4.2H49.54c-.122,0-.183.093-.183.491s.061.49.183.49h.981c.919,0,1.012.092,1.012,1.011v12.87c0,.919-.093,1.011-1.012,1.011H49.54c-.122,0-.183.092-.183.49s.061.491.183.491h7.141c.121,0,.183-.092.183-.491s-.062-.49-.183-.49H55.516c-.92,0-1.011-.092-1.011-1.011V39.935h2.482c2.114,0,3.033,1.1,3.033,3.157v2.757c0,1.533.644,2.513,2.911,2.513a6.568,6.568,0,0,0,2.421-.49m-6.8-9.683a3.251,3.251,0,0,1-2.268.766H54.5V33.286c0-.919.091-1.011,1.011-1.011h.765a3.138,3.138,0,0,1,2.268.7,3.563,3.563,0,0,1,.8,2.636,3.4,3.4,0,0,1-.8,2.574m-10.429-6.4c0-.4-.061-.491-.185-.491H42.359c-.122,0-.183.093-.183.491s.091.459.183.49c2.176.4,2.3.613,2.3,3v7.661h-.123c-.643-1.134-1.318-2.238-2.053-3.371L37.334,31.6a.488.488,0,0,0-.46-.307H31.543c-.123,0-.185.093-.185.491s.062.49.185.49h.98c.919,0,1.011.092,1.011,1.011V44.165c0,2.389-.123,2.6-2.053,3-.091.03-.183.092-.183.49s.06.491.183.491h5.792c.122,0,.183-.092.183-.491s-.092-.46-.183-.49c-2.39-.4-2.513-.613-2.513-3V33.041h.123c.551.981,1.194,2.023,1.807,2.972l7.692,11.859a.435.435,0,0,0,.4.276h.827c.245,0,.276-.153.276-.338V35.278c0-2.39.123-2.6,2.052-3,.093-.031.185-.092.185-.49m-17.744,0c0-.4-.061-.491-.184-.491H24.615c-.123,0-.184.092-.184.491s.092.459.184.49c2.176.4,2.3.613,2.3,2.973v7.874c0,3.217-1.656,4.229-4.138,4.229-2.6,0-4.167-1.012-4.167-4.229V33.286c0-.919.092-1.011,1.011-1.011h1.073c.122,0,.184-.092.184-.49s-.062-.491-.184-.491H13.8c-.123,0-.184.092-.184.491s.061.49.184.49h.827c.919,0,1.011.092,1.011,1.011v9.836c0,3.585,2.543,5.394,6.313,5.394,4.136,0,6.189-1.809,6.189-5.394V35.278c0-2.39.122-2.6,2.053-3,.092-.031.184-.092.184-.49M2.2,33.047c0-1.523,1.237-2.81,3.827-2.81,1.591,0,3.25.982,4.57,3.995.067.169.134.169.575.169s.508-.068.508-.2V29.629c0-.137-.17-.2-.508-.2-.3,0-.406.034-.474.136-.305.473-.474.643-.677.643a1.621,1.621,0,0,1-.846-.271,8.081,8.081,0,0,0-3.283-.846C2.713,28.953.067,31.151.067,34.2c0,3.014,2.539,4.468,5.857,5.619,3.588,1.253,4.637,2.234,4.637,4.3,0,1.761-1.422,3.249-3.893,3.249-2.64,0-4.2-1.117-5.551-5.11-.034-.1-.136-.169-.575-.169s-.542.067-.542.2v5.721c0,.135.1.2.542.2.406,0,.474-.068.541-.169.338-.475.576-.678.948-.678a1.654,1.654,0,0,1,.745.2,8.4,8.4,0,0,0,4.1.948,5.522,5.522,0,0,0,5.822-5.585c0-2.978-1.489-4.671-5.179-5.923-3.486-1.185-5.316-2.2-5.316-3.96" fill="#63666a"/><path d="M149.038,12.826h.975V9.291h1.35v-.9h-3.675v.9h1.35Zm-8.926.063c.956,0,1.628-.494,1.628-1.374V11.5c0-.773-.507-1.1-1.407-1.33-.766-.2-.956-.292-.956-.583V9.576c0-.215.2-.386.57-.386a2.076,2.076,0,0,1,1.153.437l.507-.735a2.568,2.568,0,0,0-1.647-.564,1.387,1.387,0,0,0-1.552,1.337v.013c0,.88.576,1.127,1.469,1.355.742.19.894.317.894.564v.013c0,.259-.241.418-.64.418a2.031,2.031,0,0,1-1.324-.539l-.577.691a2.822,2.822,0,0,0,1.882.709M129.45,10.97l.589-1.438.589,1.438ZM127.7,12.826h.995l.406-.995h1.875l.4.995h1.02L130.5,8.36h-.9Zm-9.5,0h3.377v-.868h-2.408v-.931h2.091v-.868h-2.091v-.9h2.376V8.391H118.2Z" fill="#63666a"/><path d="M124,29.813A10.974,10.974,0,0,0,115.7,33.22l2.024-11.634h14.8l1.2-3.771h-.148s-2.791.005-7.593.005h-7.946l-2.775,16.071h.32l.032-.047a8.639,8.639,0,0,1,6.913-3.231c4.735,0,7.342,3.12,7.342,8.785,0,4.618-2.464,9.279-7.97,9.279-4.992,0-7.208-3.241-7.208-4.473a.105.105,0,0,1,.116-.117,1.128,1.128,0,0,1,.292.128,2.953,2.953,0,0,0,1.413.411,2.669,2.669,0,1,0-.089-5.337,2.915,2.915,0,0,0-2.757,3.163c0,2.734,2.479,6.8,9.31,6.8a12.5,12.5,0,0,0,8.618-3.015A9.693,9.693,0,0,0,134.749,39c0-5.75-4.017-9.182-10.746-9.182" fill="#63666a"/><path d="M139.517,33.254a6.863,6.863,0,0,1,5.283-2.662c5.252,0,6.355,5.289,6.355,9.255,0,4.486-1.531,9.068-5.787,9.068-3.669,0-6.025-4.506-6.025-11.807,0-1.569.094-2.954.174-3.854m6.809-3.463a9.016,9.016,0,0,0-6.73,2.937c1.324-11.017,7.974-14.645,11.023-15.343l.02-.066.117-.359-.139.023c-3.132.508-7.989,3.2-10.757,6.32a20.8,20.8,0,0,0-5.267,14.029c0,7.719,3.918,11.934,10.775,11.934,6.075,0,10.671-4.1,10.671-9.823,0-5.693-3.631-9.652-9.713-9.652" fill="#63666a"/></svg>