<svg xmlns="http://www.w3.org/2000/svg" viewBox="0 0 535 113.143"><title>Monogram_Collection_logo</title><g id="Layer_1" data-name="Layer 1"><path d="M44.6,89.894h3.7l9.987,22.86H54.064l-2.3-5.48H41.029l-2.335,5.48H34.609ZM50.3,103.74l-3.923-9.079-3.891,9.079Z" fill="#003e52"/><path d="M70.885,101.47v-.065a11.486,11.486,0,0,1,11.7-11.738A11.826,11.826,0,0,1,91.474,93.2l-2.561,2.95a9.028,9.028,0,0,0-6.356-2.821c-4.312,0-7.49,3.567-7.49,8.009v.065c0,4.442,3.146,8.042,7.49,8.042,2.789,0,4.573-1.1,6.518-2.919l2.561,2.594a11.711,11.711,0,0,1-9.208,4.021A11.415,11.415,0,0,1,70.885,101.47Z" fill="#003e52"/><path d="M94.161,101.47v-.065a11.869,11.869,0,0,1,23.735-.065v.065a11.869,11.869,0,0,1-23.735.065Zm19.552,0v-.065A7.777,7.777,0,0,0,106,93.331c-4.507,0-7.652,3.6-7.652,8.009v.065a7.749,7.749,0,0,0,7.717,8.042A7.642,7.642,0,0,0,113.713,101.47Z" fill="#003e52"/><path d="M122.721,90.057h3.989v19.065h11.932v3.632H122.721Z" fill="#003e52"/><path d="M142.788,90.057h3.988v19.065h11.932v3.632h-15.92Z" fill="#003e52"/><path d="M162.854,90.057h16.828v3.566H166.843v5.9h11.38v3.567h-11.38v6.1h13v3.567h-16.99Z" fill="#003e52"/><path d="M183.569,101.47v-.065a11.486,11.486,0,0,1,11.706-11.738,11.828,11.828,0,0,1,8.884,3.535l-2.562,2.95a9.027,9.027,0,0,0-6.355-2.821c-4.313,0-7.49,3.567-7.49,8.009v.065c0,4.442,3.145,8.042,7.49,8.042,2.789,0,4.572-1.1,6.518-2.919l2.561,2.594a11.712,11.712,0,0,1-9.208,4.021A11.416,11.416,0,0,1,183.569,101.47Z" fill="#003e52"/><path d="M214.075,93.753h-7.2v-3.7H225.3v3.7h-7.2v19h-4.021Z" fill="#003e52"/><path d="M229.732,90.057h3.988v22.7h-3.988Z" fill="#003e52"/><path d="M238.776,101.47v-.065a11.869,11.869,0,0,1,23.735-.065v.065a11.869,11.869,0,0,1-23.735.065Zm19.552,0v-.065a7.777,7.777,0,0,0-7.717-8.074c-4.507,0-7.652,3.6-7.652,8.009v.065a7.749,7.749,0,0,0,7.717,8.042A7.642,7.642,0,0,0,258.328,101.47Z" fill="#003e52"/><path d="M267.337,90.057h3.7l12.159,15.693V90.057h3.923v22.7h-3.339L271.26,96.606v16.148h-3.923Z" fill="#003e52"/><path d="M302.672,90.057h10.181a8.193,8.193,0,0,1,5.934,2.01,5.083,5.083,0,0,1,1.524,3.761v.065a5.4,5.4,0,0,1-3.242,5.058c2.658.908,4.506,2.432,4.506,5.512v.065c0,4.053-3.339,6.226-8.4,6.226h-10.5Zm13.651,6.419c0-1.783-1.427-2.885-3.988-2.885H306.6v6.031h5.448c2.561,0,4.28-1,4.28-3.081Zm-3.4,6.518H306.6v6.226h6.615c2.724,0,4.377-1.071,4.377-3.113v-.065C317.587,104.129,316.063,102.994,312.918,102.994Z" fill="#003e52"/><path d="M331.784,103.805,322.77,90.057H327.5l6.323,10.019,6.42-10.019h4.572l-9.014,13.65v9.047h-4.021Z" fill="#003e52"/><path d="M356.517,109.447l2.4-2.854a10.508,10.508,0,0,0,7.165,2.951c2.465,0,4.021-1.168,4.021-2.854v-.065c0-1.621-.908-2.5-5.123-3.469-4.831-1.167-7.555-2.594-7.555-6.777v-.065c0-3.891,3.242-6.582,7.75-6.582a12.58,12.58,0,0,1,8.235,2.853L371.27,95.6a10.3,10.3,0,0,0-6.16-2.334c-2.335,0-3.7,1.2-3.7,2.691v.064c0,1.751,1.038,2.53,5.415,3.567,4.8,1.168,7.264,2.886,7.264,6.647v.065c0,4.248-3.34,6.777-8.107,6.777A13.986,13.986,0,0,1,356.517,109.447Z" fill="#003e52"/><path d="M378.432,103.123V90.057h3.988v12.9c0,4.216,2.173,6.453,5.739,6.453,3.535,0,5.707-2.107,5.707-6.291V90.057h3.988v12.872c0,6.777-3.826,10.181-9.76,10.181C382.193,113.11,378.432,109.706,378.432,103.123Z" fill="#003e52"/><path d="M403.329,90.057h3.7l12.159,15.693V90.057h3.924v22.7h-3.34L407.252,96.606v16.148h-3.923Z" fill="#003e52"/><path d="M428.939,90.057h10.116a9.142,9.142,0,0,1,6.55,2.269,6.863,6.863,0,0,1,1.881,4.9v.065c0,3.729-2.237,5.966-5.383,6.874l6.129,8.593H443.5l-5.577-7.912h-4.994v7.912h-3.988Zm9.825,11.251c2.853,0,4.669-1.492,4.669-3.794v-.065c0-2.431-1.751-3.761-4.7-3.761h-5.8v7.62Z" fill="#003e52"/><path d="M452.6,90.057h3.988v22.7H452.6Z" fill="#003e52"/><path d="M461.129,109.447l2.4-2.854a10.509,10.509,0,0,0,7.166,2.951c2.464,0,4.021-1.168,4.021-2.854v-.065c0-1.621-.909-2.5-5.123-3.469-4.832-1.167-7.556-2.594-7.556-6.777v-.065c0-3.891,3.243-6.582,7.75-6.582a12.584,12.584,0,0,1,8.236,2.853l-2.14,3.016a10.309,10.309,0,0,0-6.161-2.334c-2.335,0-3.7,1.2-3.7,2.691v.064c0,1.751,1.037,2.53,5.415,3.567,4.8,1.168,7.263,2.886,7.263,6.647v.065c0,4.248-3.34,6.777-8.107,6.777A13.986,13.986,0,0,1,461.129,109.447Z" fill="#003e52"/><path d="M483.4,90.057h16.828v3.566h-12.84v5.9H498.77v3.567H487.389v6.1h13v3.567H483.4Z" fill="#003e52"/><path d="M455.375,68.644c0,1.132.189,1.51.567,1.51h21.793c.377,0,.565-.378.565-1.51s-.188-1.415-.565-1.509c-8.964-2.358-9.624-3.679-9.624-11.415V8.926h.378c1.7,5.471,3.3,10.566,5,15.284l15.756,44.811a1.649,1.649,0,0,0,1.7,1.133h1.7a1.923,1.923,0,0,0,1.7-1.415L514.151,9.586h.471V64.022c0,2.83-.283,3.113-3.113,3.113h-5.661c-.377,0-.566.377-.566,1.509s.189,1.51.566,1.51h28.586c.377,0,.566-.378.566-1.51s-.189-1.509-.566-1.509h-5.661c-2.83,0-3.113-.283-3.113-3.113V8.359c0-2.83.378-3.112,3.208-3.112H533.4c.378,0,.567-.378.567-1.511s-.189-1.509-.567-1.509H514.622c-1.226,0-1.7.378-1.981,1.227L495.47,53.172h-.377L477.074,3.454a1.846,1.846,0,0,0-1.887-1.227h-18.3c-.377,0-.565.378-.565,1.509s.188,1.511.565,1.511h4.341c2.83,0,3.113.282,3.113,3.112V55.72c0,7.736-.66,9.057-8.4,11.415-.378.094-.567.377-.567,1.509M418.536,19.775h.346c.605,2.6,2.337,7.876,3.375,10.82L428.4,47.041H409.1Zm-25.45,48.994c0,1.038.087,1.385.433,1.385h17.312c.347,0,.52-.347.52-1.385s-.173-1.3-.606-1.385c-7.445-1.818-7.618-2.683-5.107-9.955l2.683-7.618h21.035l6.319,17.573h-8.4c-.347,0-.52.346-.52,1.385s.173,1.385.433,1.385H451.17c.259,0,.432-.347.432-1.385s-.173-1.385-.432-1.385h-2.424c-2.6,0-2.943-.173-3.895-2.77l-20.6-56.959c-.172-.519-.345-.692-.865-.692h-3.375a1.013,1.013,0,0,0-.953.692L402,57.083c-2.6,7.444-3.03,8.483-8.223,10.3-.52.172-.693.346-.693,1.385M369.2,23.151c0,4.674-1.3,7.444-3.2,9.348-1.991,1.991-4.761,3.116-8.656,3.116h-6.579V13.455c0-2.6.26-2.856,2.857-2.856h3.722c4.155,0,6.579,1.038,8.483,2.943s3.376,4.933,3.376,9.609m10.474-.521c0-8.656-6.059-14.8-20.775-14.8H333.446c-.347,0-.52.346-.52,1.385s.173,1.385.52,1.385h4.327c2.6,0,2.857.26,2.857,2.856V64.527c0,2.6-.26,2.857-2.857,2.857h-4.587c-.346,0-.519.346-.519,1.385s.173,1.385.519,1.385h25.363c.346,0,.519-.347.519-1.385s-.173-1.385-.519-1.385h-4.934c-2.6,0-2.857-.26-2.857-2.857V38.472h7.964c7.877,0,11.859,3.981,11.859,12.2V61.238c0,7.7,3.549,9.954,9.695,9.954a22.071,22.071,0,0,0,9-1.817c.519-.26-.434-2.683-1.04-2.424a11.152,11.152,0,0,1-3.895.866c-2.683,0-3.376-1.386-3.376-4.329V54.053c0-11.08-5.453-15.321-15.235-17.053v-.693c8.657-1.644,13.937-7.271,13.937-13.677M273.7,38.991c0,18.7,13.244,32.2,28.825,32.2,11.6,0,23.891-8.223,23.891-15.407V49.9c0-2.6.26-2.857,2.857-2.857h2.338c.345,0,.519-.346.519-1.384s-.174-1.385-.519-1.385H306.767c-.346,0-.52.346-.52,1.385s.174,1.384.52,1.384h6.579c2.6,0,2.856.26,2.856,2.857V62.017a18.2,18.2,0,0,1-13.59,6.232,15.817,15.817,0,0,1-10.993-4.5c-4.155-4.155-6.233-10.994-6.233-24.757s2.078-20.6,6.233-24.756a14.545,14.545,0,0,1,10.3-4.5c9.436,0,13.937,6.838,18.351,16.793.174.346.434.52,1.472.52s1.3-.174,1.3-.52V8.348c0-.346-.259-.519-1.3-.519s-1.125.173-1.3.519c-.866,1.645-1.645,2.164-3.29,2.164A13.239,13.239,0,0,1,312.826,9.3a26.774,26.774,0,0,0-10.907-2.51c-15.581,0-28.219,13.5-28.219,32.2m-53.85,0c0-13.763,2.078-20.6,6.233-24.756a17.418,17.418,0,0,1,23.372,0c4.155,4.155,6.233,10.993,6.233,24.756s-2.078,20.6-6.233,24.757a17.421,17.421,0,0,1-23.372,0c-4.155-4.155-6.233-10.994-6.233-24.757m-11.686,0c0,18.7,12.465,32.2,29.605,32.2,16.62,0,29.605-13.5,29.605-32.2s-12.985-32.2-29.605-32.2c-17.14,0-29.605,13.5-29.605,32.2m-62.1,29.778c0,1.038.173,1.385.519,1.385h20.6c.347,0,.52-.347.52-1.385s-.173-1.3-.52-1.385c-8.829-2.164-9.435-3.376-9.435-10.474V14.58h.346c1.732,3.03,3.9,6.493,5.713,9.349l29,45.186a1.71,1.71,0,0,0,1.558,1.039h2.51c.866,0,.953-.607.953-1.3V21.073c0-7.1.6-8.31,7.791-10.474.345-.087.519-.346.519-1.385s-.174-1.385-.519-1.385H185.364c-.346,0-.519.346-.519,1.385s.173,1.3.519,1.385c8.4,2.164,9,3.375,9,10.474V51.8h-.346c-3.2-5.281-6.319-10.129-9.695-15.322L166.407,8.953c-.519-.778-.951-1.124-1.731-1.124H146.844c-.346,0-.519.346-.519,1.385s.173,1.385.519,1.385h4.588c2.6,0,2.857.26,2.857,2.856V56.91c0,7.1-.606,8.31-7.7,10.474-.346.087-.519.346-.519,1.385M96.016,38.991c0-13.763,2.077-20.6,6.232-24.756a15.853,15.853,0,0,1,11.686-4.5,15.854,15.854,0,0,1,11.687,4.5c4.155,4.155,6.232,10.993,6.232,24.756s-2.077,20.6-6.232,24.757a15.853,15.853,0,0,1-11.687,4.5,15.852,15.852,0,0,1-11.686-4.5c-4.155-4.155-6.232-10.994-6.232-24.757m-11.686,0c0,18.7,12.465,32.2,29.6,32.2,16.621,0,29.6-13.5,29.6-32.2s-12.983-32.2-29.6-32.2c-17.139,0-29.6,13.5-29.6,32.2M0,68.6c0,1.169.2,1.559.584,1.559H23.092c.39,0,.585-.39.585-1.559s-.2-1.462-.585-1.56c-9.256-2.435-9.938-3.8-9.938-11.789V6.918h.389C15.3,12.57,16.953,17.831,18.708,22.7L34.98,68.985a1.7,1.7,0,0,0,1.753,1.169h1.753a1.988,1.988,0,0,0,1.755-1.462L60.7,7.6h.487V63.82c0,2.924-.292,3.215-3.216,3.215H52.128c-.39,0-.585.39-.585,1.56s.2,1.559.585,1.559H81.651c.389,0,.584-.39.584-1.559s-.195-1.56-.584-1.56H75.805c-2.923,0-3.216-.291-3.216-3.215V6.334c0-2.924.39-3.216,3.313-3.216h4.677c.389,0,.584-.389.584-1.559S80.968,0,80.579,0H61.189c-1.266,0-1.754.39-2.046,1.267L41.41,52.616h-.39L22.41,1.267A1.906,1.906,0,0,0,20.461,0H1.559C1.169,0,.974.39.974,1.559s.2,1.559.585,1.559H6.041c2.923,0,3.215.292,3.215,3.216V55.246c0,7.99-.682,9.354-8.672,11.789C.2,67.133,0,67.425,0,68.6" fill="#003e52"/></g></svg>