<svg id="Layer_1" data-name="Layer 1" xmlns="http://www.w3.org/2000/svg" viewBox="0 0 64.26172 60.95507"><defs><style>.cls-1{fill:#f37929;}.cls-2{fill:#fdc05a;}</style></defs><title>did-you-know</title><g id="Layer_1-2" data-name="Layer 1"><path class="cls-1" d="M31.91589,0a23.3855,23.3855,0,0,0,.00024,46.771h.00073A23.3855,23.3855,0,1,0,31.91589,0Zm-.34119,40.30719a1.7695,1.7695,0,0,1,0-3.539h.001a1.7695,1.7695,0,0,1-.001,3.539Zm5.82886-14.33441a12.11857,12.11857,0,0,1-3.082,4.157,9.16419,9.16419,0,0,0-2.766,4.352.72915.72915,0,0,1-.119.329c-.253.31-.729-.066-.861-.449a3.68343,3.68343,0,0,1,.452-2.907,18.80607,18.80607,0,0,1,2.464-3.076,7.30943,7.30943,0,0,0,1.894-3.435,4.31156,4.31156,0,0,0-2.68-4.696,3.77147,3.77147,0,0,0-4.641,2.08,1.84272,1.84272,0,0,1,1.884,1.452,1.91963,1.91963,0,0,1-1.153,2.125,2.12734,2.12734,0,0,1-2.709-1.676,4.2754,4.2754,0,0,1,1.062-3.584,6.38136,6.38136,0,0,1,3.473-2.136,7.273,7.273,0,0,1,1.962-.117,6.13032,6.13032,0,0,1,3.861,1.783,5.03325,5.03325,0,0,1,1.368,3.643A6.96244,6.96244,0,0,1,37.40356,25.97278Z" transform="translate(0 0)"/><path class="cls-2" d="M23.40258,23.6076l-10.351-2.351,10.018-.67-3.311-2.808,4.357.368-6.927-7.609,8.635,5.286-1.197-4.248,3.395,2.843-1.56-10.318,4.24,9.396,1.333-4.205,1.248,4.326,4.353-9.425-1.636,10.227,3.399-2.694-1.334,4.298,8.745-5.244-6.941,7.489,4.279-.243-3.452,2.77,10.086.768-10.325,2.246c.393-13.093-17.25-12.953-17.066-.363l.001.021.001.019.002.028.001.012.003.035v.006Z" transform="translate(0 0)"/></g><path class="cls-1" d="M2.166,60.86035H0V55.30664H2.166a2.76782,2.76782,0,0,1,2.95166,2.76074V58.083A2.7806,2.7806,0,0,1,2.166,60.86035ZM3.84033,58.083A1.59513,1.59513,0,0,0,2.166,56.40918H1.22217v3.34863H2.166a1.58279,1.58279,0,0,0,1.67432-1.6582Z" transform="translate(0 0)"/><path class="cls-1" d="M6.25977,60.86035V55.30664H7.48145v5.55371Z" transform="translate(0 0)"/><path class="cls-1" d="M11.03564,60.86035h-2.166V55.30664h2.166a2.76782,2.76782,0,0,1,2.95166,2.76074V58.083A2.7806,2.7806,0,0,1,11.03564,60.86035ZM12.71,58.083a1.59513,1.59513,0,0,0-1.67432-1.67383h-.94434v3.34863h.94434A1.58279,1.58279,0,0,0,12.71,58.09961Z" transform="translate(0 0)"/><path class="cls-1" d="M20.23926,58.64648v2.21387H19.01709V58.66992l-2.13428-3.36328H18.311l1.3252,2.22949,1.34863-2.22949h1.38867Z" transform="translate(0 0)"/><path class="cls-1" d="M25.356,60.95508a2.84554,2.84554,0,0,1-2.94385-2.85547V58.083a2.953,2.953,0,0,1,5.90332-.01562V58.083A2.87176,2.87176,0,0,1,25.356,60.95508ZM27.03809,58.083A1.687,1.687,0,0,0,25.356,56.33789a1.66068,1.66068,0,0,0-1.666,1.72949V58.083a1.68776,1.68776,0,0,0,1.68164,1.74609,1.66135,1.66135,0,0,0,1.6665-1.72949Z" transform="translate(0 0)"/><path class="cls-1" d="M31.71875,60.94727a2.20408,2.20408,0,0,1-2.4043-2.4668V55.30664h1.22217v3.1416c0,.9043.45215,1.373,1.19824,1.373.74561,0,1.19775-.45215,1.19775-1.333V55.30664H34.1543v3.13379A2.23556,2.23556,0,0,1,31.71875,60.94727Z" transform="translate(0 0)"/><path class="cls-1" d="M41.36523,60.86035l-1.72168-2.36426-.64258.666v1.69824H37.7793V55.30664H39.001v2.42773l2.25293-2.42773h1.47656l-2.26172,2.35645L42.833,60.86035Z" transform="translate(0 0)"/><path class="cls-1" d="M47.4668,60.86035,44.77734,57.3291v3.53125h-1.207V55.30664h1.127l2.60254,3.41895V55.30664h1.20605v5.55371Z" transform="translate(0 0)"/><path class="cls-1" d="M52.53613,60.95508a2.84512,2.84512,0,0,1-2.94336-2.85547V58.083a2.953,2.953,0,0,1,5.90332-.01562V58.083A2.87218,2.87218,0,0,1,52.53613,60.95508ZM54.21875,58.083a1.68773,1.68773,0,0,0-1.68262-1.74512,1.661,1.661,0,0,0-1.666,1.72949V58.083a1.68776,1.68776,0,0,0,1.68164,1.74609,1.66174,1.66174,0,0,0,1.667-1.72949Z" transform="translate(0 0)"/><path class="cls-1" d="M62.36621,60.90039H61.30273l-1.25391-3.63477-1.25391,3.63477h-1.0625l-1.89648-5.59375h1.30859l1.15039,3.76074L59.541,55.29h1.04785L61.834,59.06738l1.15039-3.76074h1.27734Z" transform="translate(0 0)"/></svg>