<svg id="art" xmlns="http://www.w3.org/2000/svg" viewBox="0 0 40 40.00001"><defs><style>.cls-1{fill:url(#linear-gradient)}.cls-2{fill:#aea79c}</style><linearGradient id="linear-gradient" x1="20" y1="40" x2="20" gradientUnits="userSpaceOnUse"><stop offset="0" stop-color="#afa99f"/><stop offset="1" stop-color="#c5af8a"/></linearGradient></defs><title>icon</title><path class="cls-1" d="M20 1.5A18.5 18.5 0 1 1 1.5 20 18.52 18.52 0 0 1 20 1.5M20 0a20 20 0 1 0 20 20A20 20 0 0 0 20 0z"/><path class="cls-2" d="M21.532 28.475v2.35h-2.47v-2.398a11.92 11.92 0 0 1-5.603-2.256l1.85-2.705a9.417 9.417 0 0 0 3.87 1.923v-3.776c-3.418-.925-5.103-2.254-5.103-5.056 0-2.636 1.994-4.37 4.985-4.678V10.5h2.47v1.426a9.956 9.956 0 0 1 4.416 1.757l-1.59 2.778a9.798 9.798 0 0 0-2.946-1.4v3.585c3.61.973 5.153 2.47 5.153 5.13 0 2.634-2.018 4.367-5.033 4.7zm-2.35-13.63c-1.14.168-1.64.737-1.64 1.497 0 .736.333 1.234 1.64 1.71zm2.23 7.338v3.324c1.117-.167 1.687-.688 1.687-1.544 0-.807-.405-1.306-1.688-1.78z"/></svg>