<svg id="art" xmlns="http://www.w3.org/2000/svg" viewBox="0 0 33.13879 36.16016"><defs><style>.cls-1{fill:url(#linear-gradient)}</style><linearGradient id="linear-gradient" x1="16.569" y1="36.16" x2="16.569" gradientUnits="userSpaceOnUse"><stop offset="0" stop-color="#afa99f"/><stop offset="1" stop-color="#c5af8a"/></linearGradient></defs><title>icon</title><path class="cls-1" d="M31.286 0H10.734a1.866 1.866 0 0 0-1.852 1.875v4.01h-7.7A1.185 1.185 0 0 0 0 7.064V34.98a1.185 1.185 0 0 0 1.18 1.18h22.532a1.185 1.185 0 0 0 1.18-1.18v-4.042h6.394a1.866 1.866 0 0 0 1.853-1.875V1.875A1.866 1.866 0 0 0 31.285 0zm-7.893 34.66H1.5V7.384h21.893zm8.246-5.597a.37.37 0 0 1-.354.374h-6.393V7.067a1.185 1.185 0 0 0-1.18-1.183h-13.33v-4.01a.37.37 0 0 1 .352-.374h20.55a.37.37 0 0 1 .354.375zM4.927 14.742a.75.75 0 0 1 .75-.75h8.692a.75.75 0 1 1 0 1.5H5.678a.75.75 0 0 1-.75-.75zm-.062 4.723a.75.75 0 0 1 .75-.75h13.66a.75.75 0 0 1 0 1.5H5.616a.75.75 0 0 1-.75-.75zm0 4.721a.75.75 0 0 1 .75-.75h13.66a.75.75 0 1 1 0 1.5H5.616a.75.75 0 0 1-.75-.75zm0 4.72a.75.75 0 0 1 .75-.75h13.66a.75.75 0 0 1 0 1.5H5.616a.75.75 0 0 1-.75-.75z"/></svg>