<svg xmlns="http://www.w3.org/2000/svg" viewBox="0 0 101.00003 57.17919"><defs><style>.cls-1{fill:#fbae17;}.cls-1,.cls-2{fill-rule:evenodd;}.cls-2{fill:#f37928;}</style></defs><title>1</title><g id="Layer_1" data-name="Layer 1"><path class="cls-1" d="M37.76817,24.81006,24.17509,21.81954l13.1558-.85255-4.34883-3.571,5.72253.46775-9.09723-9.6765,11.34012,6.7224L39.37494,9.50686,43.8334,13.1225,41.78589,0l5.56735,11.9508L49.1039,6.60271l1.6385,5.50169L56.45958.11685l-2.148,13.0066,4.46286-3.42591L57.0225,15.164,68.50777,8.495,59.392,18.0195l5.61949-.30942-4.53385,3.52361L73.72391,22.21,60.16351,25.06733c.51737-16.65333-22.65261-16.474-22.41168-.4624l.0022.027.00094.0245.00346.03581.00094.01508.00345.044v.00754Z"/><path class="cls-2" d="M69.73332,51.65111H68.538v5.43478h1.19528Zm-7.03623.00032h-1.32l2.197,5.4731h1.05642l2.19609-5.4731H65.53872l-1.42112,3.82768Zm-3.02853-.00032H58.47329v5.43478h1.19527Zm-5.677.00032H52.796V57.0862h3.90527V55.99962H53.99158Zm-7.53569,1.07872c.5824,0,.93957.2645.93957.77654v.0157c0,.458-.3336.76868-.916.76868H45.26816V52.73015Zm.10084-1.079H44.07226V57.0862h1.1959V55.34686h.93957L47.3719,57.0862h1.39756l-1.32783-1.941a1.68856,1.68856,0,0,0,1.1648-1.68468V53.4448a1.7064,1.7064,0,0,0-.46586-1.24238,2.16427,2.16427,0,0,0-1.58385-.5513m-8.89242,2.70215a1.62573,1.62573,0,0,1,1.631-1.69254A1.65124,1.65124,0,0,1,40.941,54.369v.01508a1.62515,1.62515,0,0,1-1.63,1.69253A1.65147,1.65147,0,0,1,37.66431,54.369Zm-1.24961.01571v.01508a2.88943,2.88943,0,0,0,5.77624-.01508v-.01571a2.88942,2.88942,0,0,0-5.77624.01571m-1.93411-2.71786H33.28532v5.43478h1.19527Zm-10.12035.00032H20.26083V57.0862h4.138v-1.064h-2.95V54.88069H24.0106V53.818H21.44886V52.71507h2.91137ZM14.80876,55.448l-.70648.846a3.45917,3.45917,0,0,0,2.30572.86983c1.17265,0,1.996-.60565,1.996-1.68469V55.4634c0-.94678-.62167-1.34291-1.72427-1.63065-.93956-.24063-1.172-.35686-1.172-.71434v-.01508c0-.26418.24062-.47339.69894-.47339a2.54836,2.54836,0,0,1,1.41264.53528l.621-.90093a3.14684,3.14684,0,0,0-2.0183-.69046,1.70007,1.70007,0,0,0-1.90238,1.63851v.01508c0,1.07872.70649,1.38186,1.80155,1.66112.90815.23308,1.09474.38826,1.09474.69109v.0157c0,.31853-.29559.51235-.78438.51235a2.4943,2.4943,0,0,1-1.62281-.65968M2.13578,32.109c0-1.47956,1.20155-2.7298,3.71837-2.7298,1.54584,0,3.15733.9537,4.43992,3.88078.06534.16428.13037.16428.55853.16428.42753,0,.49381-.06628.49381-.19759v-4.439c0-.13256-.16492-.1979-.49381-.1979-.29528,0-.39455.033-.46052.13162-.29591.45988-.45988.6248-.65747.6248a1.5782,1.5782,0,0,1-.8224-.26324,7.85006,7.85006,0,0,0-3.18968-.82146A5.1486,5.1486,0,0,0,.06471,33.2267c0,2.92739,2.46719,4.341,5.6908,5.45928,3.48623,1.217,4.50527,2.17033,4.50527,4.17638,0,1.71075-1.38092,3.15671-3.78214,3.15671-2.56487,0-4.07741-1.0847-5.39268-4.96515-.03361-.09865-.13256-.164-.55978-.164-.42754,0-.52618.06533-.52618.197V46.6445c0,.13161.09864.19727.52618.19727.39486,0,.46114-.06566.52617-.164.32889-.46083.55978-.65873.921-.65873a1.6,1.6,0,0,1,.72344.19789,8.1729,8.1729,0,0,0,3.97941.92072,5.3648,5.3648,0,0,0,5.65625-5.426c0-2.89409-1.44688-4.53856-5.03112-5.75552-3.38759-1.151-5.16557-2.137-5.16557-3.84716m27.37745-1.22668c0-.38732-.05937-.47654-.17874-.47654H23.91573c-.11874,0-.17811.08921-.17811.47654s.0889.44669.17811.47622c2.11411.38732,2.23347.59591,2.23347,2.88812V41.898c0,3.12592-1.608,4.10852-4.01962,4.10852-2.53064,0-4.04883-.9826-4.04883-4.10852V32.34116c0-.89339.08953-.9826.98228-.9826h1.042c.11936,0,.17936-.0889.17936-.47622s-.06-.47654-.17936-.47654H13.4068c-.11937,0-.17812.08921-.17812.47654s.05875.47622.17812.47622h.80386c.89307,0,.98228.08921.98228.9826V41.898c0,3.48309,2.471,5.24,6.13341,5.24,4.01868,0,6.01373-1.75693,6.01373-5.24V34.27621c0-2.32174.11874-2.53032,1.99442-2.91765.08984-.02953.17874-.0889.17874-.47622m.41559,20.76908v3.34613l-2.54666-3.34613H26.27988V57.0862h1.18019V53.63108l2.6318,3.45512h1.01684V51.65143ZM46.75337,30.88234c0-.3867-.05937-.47654-.179-.47654H41.1565c-.11937,0-.17874.08984-.17874.47654,0,.38732.0889.44669.17874.47622,2.11347.38764,2.23284.59591,2.23284,2.91765v7.44365H43.27c-.62481-1.102-1.28009-2.17411-1.99473-3.27513L36.27365,30.7036a.4723.4723,0,0,0-.44669-.2978h-5.18c-.11937,0-.17906.08984-.17906.47654,0,.38732.05969.47622.17906.47622h.95276c.89276,0,.98229.08921.98229.9826V42.91073c0,2.32175-.11937,2.53032-1.99505,2.917-.08859.02953-.17811.08953-.17811.47622,0,.38732.05905.47654.17811.47654h5.62734c.11843,0,.17842-.08921.17842-.47654,0-.38669-.08953-.44669-.17842-.47622-2.32206-.3867-2.44143-.59527-2.44143-2.917V32.10305h.11937c.53528.95276,1.16072,1.96521,1.75631,2.8878l7.47286,11.5217a.42274.42274,0,0,0,.38669.268h.80417c.23811,0,.268-.14858.268-.32764V34.27621c0-2.32174.11875-2.53,1.99411-2.91765.08952-.02953.179-.0889.179-.47622m10.13325,6.22293a3.16276,3.16276,0,0,1-2.20332.74386H52.95683v-5.508c0-.89339.0889-.9826.98228-.9826h.74418a3.0479,3.0479,0,0,1,2.20332.6848,3.46024,3.46024,0,0,1,.7737,2.5608,3.30375,3.30375,0,0,1-.7737,2.50111m6.60931,9.40728c.17906-.08921-.1489-.92261-.35748-.83338a2.96349,2.96349,0,0,1-1.04228.23811c-.50606,0-.77339-.26859-.77339-.92292V42.70183c0-2.67954-1.6674-3.96025-4.25773-4.40569v-.17936c2.64969-.44639,3.84056-1.81568,3.84056-3.632,0-2.38174-1.78583-4.079-5.44765-4.079H48.13366c-.11937,0-.17842.08984-.17842.47654,0,.38732.05905.47622.17842.47622h.95276c.89339,0,.98261.08921.98261.9826V44.84578c0,.89276-.08922.982-.98261.982h-.95276c-.11937,0-.17842.08953-.17842.47622,0,.38732.05905.47654.17842.47654h6.93726c.11843,0,.17812-.08921.17812-.47654,0-.38669-.05969-.47622-.17812-.47622H53.93912c-.89339,0-.98228-.08921-.98228-.982V38.80158h2.41158c2.05379,0,2.94717,1.07213,2.94717,3.06686v2.67922c0,1.48867.62543,2.44174,2.82781,2.44174a6.36586,6.36586,0,0,0,2.35252-.47685m5.284-1.66678V32.34116c0-.89339.08921-.9826.98228-.9826H70.715c.11936,0,.17811-.0889.17811-.47622,0-.3867-.05875-.47654-.17811-.47654H63.95676c-.11937,0-.17842.08984-.17842.47654,0,.38732.05905.47622.17842.47622h.95276c.89339,0,.982.08921.982.9826V44.84578c0,.89276-.08859.982-.982.982h-.95276c-.11937,0-.17842.08953-.17842.47622,0,.38732.05905.47654.17842.47654H70.715c.11936,0,.17811-.08921.17811-.47654,0-.38669-.05875-.47622-.17811-.47622h-.95277c-.89307,0-.98228-.08921-.98228-.982m4.2304,6.80565h-1.102V57.0862h1.17956V53.63108L75.72,57.0862h1.01747V51.65143H75.557v3.34613Zm1.4516-18.11877c0-1.33976,1.08784-2.47189,3.36655-2.47189,1.39945,0,2.85765.86354,4.019,3.51387.05905.14858.11842.14858.50606.14858.387,0,.44669-.05969.44669-.17906V30.52549c0-.11968-.14953-.17874-.44669-.17874-.268,0-.35716.02953-.41717.11875-.268.41685-.41653.56606-.59527.56606a1.43061,1.43061,0,0,1-.74418-.23811,7.10984,7.10984,0,0,0-2.8878-.74417,4.66071,4.66071,0,0,0-5.1219,4.4949c0,2.65,2.23347,3.9301,5.15143,4.94254,3.15607,1.10165,4.07868,1.96426,4.07868,3.78088,0,1.54835-1.25024,2.85765-3.424,2.85765-2.32175,0-3.69072-.98228-4.8816-4.4949-.03047-.08953-.11969-.1489-.507-.1489-.387,0-.47622.05937-.47622.17842V46.6913c0,.11874.08921.17842.47622.17842.35717,0,.41717-.05969.47655-.14795.2981-.41748.50669-.59654.83338-.59654a1.44861,1.44861,0,0,1,.65528.17906,7.40366,7.40366,0,0,0,3.60277.8337,4.85727,4.85727,0,0,0,5.12065-4.91238c0-2.61954-1.31024-4.10883-4.55521-5.20986-3.06655-1.0426-4.67616-1.935-4.67616-3.48309m7.01329,23.64653a3.52778,3.52778,0,0,0,2.32142-.862V53.95746H81.43626v1.03223H82.64v.77622a1.90739,1.90739,0,0,1-1.12552.32638A1.62816,1.62816,0,0,1,79.86812,54.369v-.01571A1.63255,1.63255,0,0,1,81.429,52.66073a2.00151,2.00151,0,0,1,1.42081.551l.75235-.90783a2.9778,2.9778,0,0,0-2.13484-.74574A2.78948,2.78948,0,0,0,78.6185,54.369v.01508a2.71978,2.71978,0,0,0,2.85672,2.79513M98.01734,46.40261v-4.3815c0-.10712-.08262-.14921-.35213-.14921-.26984,0-.31131.04209-.35215.14921-1.07777,3.13911-1.466,3.95994-3.89082,3.95994l-3.10456-.00472c-.7316,0-.80417-.07507-.80417-.82868V38.04484h1.91495c1.83233,0,1.78081,1.02533,2.25325,2.12226.03959.10116.05938.1621.31509.1621.25632,0,.33549-.06094.33549-.1621v-5.0773c0-.10209-.07917-.142-.33549-.142-.25571,0-.2755.0399-.31509.142-.47244,1.09632-.42092,2.083-2.273,2.083H89.5135V30.75166c0-.75328.07257-.82868.80417-.82868l1.76417-.00094c2.43733,0,3.36937.6713,4.30139,3.17021.04178.10617.08325.1492.35276.1492.2689,0,.3311-.043.3311-.1492V29.4832c0-.29937-.0622-.40585-.35215-.40585l-12.07675.00032c-.0977,0-.1467.09141-.1467.41779s.049.42753.1467.42753H85.857c.731,0,.80417-.09738.80417.65591V45.14766c0,.75361-.07319.82868-.80417.82868H84.5892c-.0977,0-.147.07539-.147.40177,0,.3267.04932.40209.147.40209l13.076.02733c.29026,0,.35213-.10617.35213-.40492m2.03244-1.08909c0,.099-.07194.16586-.1976.16586h-.26071v-.33643h.25569c.12566,0,.20262.05686.20262.16743Zm.29622.76836-.28618-.41842a.36385.36385,0,0,0,.251-.36314v-.00345a.36659.36659,0,0,0-.10052-.26764.4651.4651,0,0,0-.34115-.11905h-.5356v1.1717h.25792v-.37507h.20229l.251.37507Zm.46209-.55695a1.02556,1.02556,0,1,1-1.02815-1.05423,1.04886,1.04886,0,0,1,1.02815,1.05423M101,45.529a1.2174,1.2174,0,1,0-1.2201,1.24428A1.23224,1.23224,0,0,0,101,45.529"/></g></svg>