<svg id="Layer_1" data-name="Layer 1" xmlns="http://www.w3.org/2000/svg" viewBox="0 0 284.89001 176.12512"><defs><style>.cls-1{fill:#474c55;}.cls-2{fill:#f37928;}.cls-2,.cls-3{fill-rule:evenodd;}.cls-3{fill:#fbae17;}</style></defs><title>villa-logo</title><path class="cls-1" d="M82.26221,176.12512l10.227-24.989h-5.898l-6.55,16.866-6.581-16.866h-5.997l10.262,24.989Zm23.112-.085h5.268v-24.821h-5.268Zm21.689,0h17.739v-5.098h-12.291v-19.723h-5.448Zm30.837,0h17.738v-5.098h-12.289v-19.723h-5.449Zm42.644-9.904h-6.491l3.246-7.676Zm10.031,9.989-10.867-24.989h-4.685l-10.868,24.989h5.676l2.229-5.273h10.478l2.23,5.273Z"/><path class="cls-2" d="M6.025,90.56879c0-4.173,3.389-7.7,10.488-7.7,4.36,0,8.906,2.691,12.524,10.947.184.464.368.464,1.575.464,1.206,0,1.393-.188,1.393-.558v-12.521c0-.374-.465-.558-1.393-.558-.833,0-1.113.092-1.298.371-.835,1.297-1.298,1.762-1.856,1.762a4.4451,4.4451,0,0,1-2.319-.742,22.17788,22.17788,0,0,0-8.997-2.318c-8.705-.368-15.959,5.658-15.959,14.006,0,8.257,6.959,12.245,16.052,15.399,9.833,3.432,12.708,6.121,12.708,11.78,0,4.825-3.896,8.904-10.669,8.904-7.234,0-11.5-3.059-15.211-14.005-.094-.278-.374-.462-1.578-.462-1.206,0-1.485.184-1.485.555v15.676c0,.371.279.557,1.485.557,1.113,0,1.3-.186,1.484-.463.927-1.3,1.578-1.858,2.597-1.858a4.51687,4.51687,0,0,1,2.041.558,23.04981,23.04981,0,0,0,11.225,2.598c8.813,0,15.955-6.029,15.955-15.306,0-8.163-4.082-12.801-14.192-16.234-9.555-3.247-14.57-6.028-14.57-10.85205m77.223-3.46c0-1.092-.168-1.344-.504-1.344H67.459c-.335,0-.502.252-.502,1.344,0,1.093.25,1.261.502,1.344,5.963,1.092,6.3,1.68,6.3,8.146v21.582c0,8.817-4.536,11.589-11.338,11.589-7.138,0-11.421-2.772-11.421-11.589v-26.957c0-2.52.253-2.771,2.771-2.771h2.94c.336,0,.505-.251.505-1.344,0-1.092-.169-1.344-.505-1.344H37.816c-.336,0-.502.252-.502,1.344,0,1.093.166,1.344.502,1.344h2.269c2.518,0,2.77.251,2.77,2.771v26.957c0,9.825,6.97,14.781,17.3,14.781,11.336,0,16.963-4.956,16.963-14.781v-21.499c0-6.549.335-7.137,5.626-8.229.253-.083.504-.251.504-1.344m48.629,0c0-1.091-.168-1.344-.505-1.344H116.09c-.337,0-.504.253-.504,1.344,0,1.093.25,1.26.504,1.343,5.962,1.09406,6.298,1.681,6.298,8.23v20.996h-.336c-1.763-3.108-3.611-6.132-5.627-9.238l-14.108-21.835a1.33226,1.33226,0,0,0-1.26-.84H86.446c-.337,0-.506.253-.506,1.344,0,1.093.169,1.343.506,1.343h2.687c2.519,0,2.771.252,2.771,2.772v29.813c0,6.549-.337,7.138-5.627,8.229-.251.083-.503.252-.503,1.343,0,1.092.166,1.344.503,1.344H102.15c.333,0,.502-.252.502-1.344,0-1.091-.252-1.26-.502-1.343-6.551-1.091-6.887-1.68-6.887-8.229V90.5528h.336c1.511,2.687,3.275,5.542,4.954,8.145l21.079,32.499a1.19362,1.19362,0,0,0,1.091.756h2.268c.672,0,.756-.419.756-.925v-34.346c0-6.549.335-7.136,5.625-8.23.253-.08295.505-.25.505-1.343m28.583,17.553a8.91963,8.91963,0,0,1-6.215,2.099h-4.87v-15.537c0-2.52.251-2.772,2.77-2.772h2.1c2.856,0,4.955.672,6.215,1.932,1.428,1.428,2.182,3.695,2.182,7.223,0,3.527-.754,5.626-2.182,7.055m18.642,26.535c.506-.252-.419-2.602-1.008-2.351a8.33307,8.33307,0,0,1-2.939.672c-1.428,0-2.182-.757-2.182-2.603v-6.466c0-7.559-4.704-11.171-12.01-12.428v-.506c7.474-1.258,10.833-5.121,10.833-10.244,0-6.718-5.037-11.506-15.366-11.506H135.77c-.336,0-.502.253-.502,1.344,0,1.093.166,1.343.502,1.343h2.688c2.52,0,2.772.252,2.772,2.772v35.271c0,2.519-.252,2.771-2.772,2.771H135.77c-.336,0-.502.252-.502,1.343,0,1.092.166,1.344.502,1.344h19.568c.334,0,.503-.252.503-1.344,0-1.091-.169-1.343-.503-1.343h-3.193c-2.519,0-2.77-.252-2.77-2.771v-17.048h6.803c5.793,0,8.313,3.024,8.313,8.651v7.557c0,4.199,1.763,6.887,7.976,6.887a17.9348,17.9348,0,0,0,6.635-1.345m14.905-4.702v-35.271c0-2.52.252-2.772,2.771-2.772h2.687c.337,0,.503-.25.503-1.343,0-1.091-.166-1.344-.503-1.344H180.402c-.336,0-.502.253-.502,1.344,0,1.093.166,1.343.502,1.343h2.688c2.52,0,2.77.252,2.77,2.772v35.271c0,2.519-.25,2.771-2.77,2.771h-2.688c-.336,0-.502.252-.502,1.343,0,1.092.166,1.344.502,1.344h19.063c.337,0,.503-.252.503-1.344,0-1.091-.166-1.343-.503-1.343h-2.687c-2.519,0-2.771-.252-2.771-2.771m16.027-31.91c0-3.77905,3.069-6.972,9.496-6.972,3.947,0,8.061,2.436,11.337,9.911.166.42.334.42,1.427.42,1.091,0,1.26-.169,1.26-.506v-11.335c0-.338-.422-.50494-1.26-.50494-.756,0-1.008.08295-1.176.335-.757,1.176-1.176,1.597-1.68,1.597a4.03109,4.03109,0,0,1-2.099-.672,20.04235,20.04235,0,0,0-8.146-2.098c-7.881-.334-14.446,5.121-14.446,12.678,0,7.475,6.3,11.085,14.53,13.942,8.902,3.107,11.504,5.54,11.504,10.664,0,4.368-3.526,8.061-9.658,8.061-6.548,0-10.41-2.771-13.769-12.679-.086-.252-.338-.42-1.43-.42s-1.344.168-1.344.503v14.192c0,.335.252.504,1.344.504,1.007,0,1.177-.169,1.344-.418.84-1.177,1.429-1.682,2.351-1.682a4.08411,4.08411,0,0,1,1.848.505,20.88174,20.88174,0,0,0,10.162,2.351c7.978,0,14.444-5.458,14.444-13.856,0-7.389-3.695-11.59-12.849-14.696-8.649-2.94-13.19-5.457-13.19-9.824m66.443,36.302v-12.359c0-.302-.234-.421-.994-.421s-.878.119-.993.421c-3.04,8.854-4.135,11.17-10.974,11.17l-8.758-.013c-2.063,0-2.268-.212-2.268-2.337v-20.036l5.401.001c5.169,0,5.024,2.891,6.357,5.986.111.285.166.457.888.457.723,0,.946-.172.946-.457v-14.322c0-.287-.223-.4-.946-.4-.722,0-.777.113-.888.4-1.333,3.093-1.188,5.876-6.413,5.876H252.49v-18.112c0-2.126.205-2.338,2.268-2.338l4.977-.002c6.874,0,9.504,1.893,12.133,8.941.117.3.234.422.994.422.759,0,.935-.122.935-.422v-10.179c0-.845-.176-1.145-.994-1.145H238.738c-.275,0-.414.259-.414,1.179,0,.921.139,1.206.414,1.206h3.438c2.062,0,2.268-.275,2.268,1.85v41.095c0,2.125-.206,2.337-2.268,2.337H238.6c-.276,0-.414.213-.414,1.133,0,.921.138,1.135.414,1.135l36.883.077c.819,0,.994-.3.994-1.143m5.733-3.072c0,.279-.203.468-.557.468h-.737v-.949h.722c.354,0,.572.161.572.472Zm.835,2.167-.807-1.18a1.0268,1.0268,0,0,0,.708-1.025v-.009a1.03747,1.03747,0,0,0-.283-.755,1.31889,1.31889,0,0,0-.963-.335h-1.511v3.304h.727v-1.057h.571l.709,1.057Zm1.304-1.57a2.89313,2.89313,0,1,1-2.901-2.974,2.95853,2.95853,0,0,1,2.901,2.974m.541.011a3.43386,3.43386,0,1,0-3.442,3.51,3.47592,3.47592,0,0,0,3.442-3.51"/><path class="cls-3" d="M106.67569,69.981l-38.342-8.435,37.108-2.405-12.266-10.073,16.142,1.32-25.661-27.295,31.987,18.962-4.436-15.24,12.576,10.199L118.0087,0l15.704,33.709,4.937-15.085,4.622,15.518L159.39771.329l-6.059,36.688,12.589-9.663-4.942,15.418,32.397-18.811-25.713,26.866,15.851-.873-12.788,9.939,37.363,2.754-38.25,8.059c1.46-46.973-63.896-46.468-63.216-1.304l.006.076.003.07.009.101.003.043.01.123v.022Z"/></svg>